<?xml version="1.0" encoding="UTF-8" standalone="no"?>
<!-- Created with Inkscape (http://www.inkscape.org/) -->

<svg
   width="210mm"
   height="297mm"
   viewBox="0 0 210 297"
   version="1.1"
   id="svg5"
   inkscape:version="1.2.1 (9c6d41e410, 2022-07-14)"
   sodipodi:docname="Favicon.svg"
   xmlns:inkscape="http://www.inkscape.org/namespaces/inkscape"
   xmlns:sodipodi="http://sodipodi.sourceforge.net/DTD/sodipodi-0.dtd"
   xmlns="http://www.w3.org/2000/svg"
   xmlns:svg="http://www.w3.org/2000/svg">
  <sodipodi:namedview
     id="namedview7"
     pagecolor="#ffffff"
     bordercolor="#999999"
     borderopacity="1"
     inkscape:showpageshadow="0"
     inkscape:pageopacity="0"
     inkscape:pagecheckerboard="0"
     inkscape:deskcolor="#d1d1d1"
     inkscape:document-units="mm"
     showgrid="false"
     showguides="true"
     inkscape:zoom="0.74564394"
     inkscape:cx="329.91618"
     inkscape:cy="571.31826"
     inkscape:window-width="1920"
     inkscape:window-height="1017"
     inkscape:window-x="-8"
     inkscape:window-y="627"
     inkscape:window-maximized="1"
     inkscape:current-layer="layer1" />
  <defs
     id="defs2" />
  <g
     inkscape:label="Layer 1"
     inkscape:groupmode="layer"
     id="layer1">
    <path
       id="path452"
       style="display:inline;opacity:1;fill:#000000;fill-opacity:1;stroke:#b0b0b0;stroke-width:1;stroke-dasharray:none;stroke-opacity:1"
       d="m 106.86523,106.45898 c -4.94507,-0.0115 -9.949167,1.09339 -14.384529,3.13011 -8.457885,3.83339 -15.183141,11.22186 -18.185109,20.02536 -3.017797,8.55212 -2.40678,18.37552 1.689874,26.55291 4.21401,8.58261 12.178701,15.21975 21.391495,17.79104 6.853329,1.9859 14.421649,1.71336 21.140619,-0.73184 6.5842,-2.37654 12.42321,-6.81379 16.48828,-12.64062 4.59043,-6.51859 6.75004,-14.6372 6.10352,-22.59375 -0.19862,-2.26762 -0.62499,-4.69606 -1.3086,-6.94336 -2.55449,-8.65955 -8.67378,-16.246 -16.69929,-20.49894 -4.99022,-2.66247 -10.6207,-4.12177 -16.23626,-4.09091 z m -0.0957,10.99805 c 7.99769,-0.0761 15.85665,4.31095 19.99024,11.1582 3.73085,6.02538 4.50056,13.77104 1.97741,20.39836 -2.52036,6.92962 -8.5224,12.46538 -15.64353,14.39032 -7.31195,2.10782 -15.587693,0.29834 -21.366165,-4.64785 -5.71534,-4.75001 -8.893503,-12.35256 -8.240652,-19.75846 0.538968,-7.35031 4.810969,-14.29506 11.127032,-18.09359 3.633128,-2.24738 7.893555,-3.39586 12.155665,-3.44698 z" />
    <path
       id="path1173-3"
       style="fill:#000000;fill-opacity:1;stroke:#b0b0b0;stroke-width:1;stroke-dasharray:none;stroke-opacity:1"
       d="m 109.64453,100.58398 c 10.43928,0.68715 20.49932,5.66401 27.40782,13.51641 7.16268,8.03039 10.88292,19.0137 10.03439,29.74422 -0.69753,10.03458 -5.34773,19.71571 -12.71972,26.55693 -6.6939,6.2677 -15.57073,10.14427 -24.72249,10.75862 0,2.68359 0,5.36718 0,8.05078 4.49869,-0.21092 8.9894,-0.96112 13.23823,-2.17015 12.03993,-3.39675 23.025,-10.93409 29.9066,-21.45677 1.58583,-2.42949 2.93981,-4.93804 4.06966,-7.66993 4.09115,-9.71069 4.5467,-20.89913 1.18578,-30.89259 -2.39163,-7.315 -6.77162,-14.06026 -12.37503,-19.40046 -9.02302,-8.665764 -21.15413,-13.817781 -33.56821,-14.923774 -0.76396,-0.06118 -1.64592,-0.13168 -2.45703,-0.167969 0,2.684896 0,5.369792 0,8.054683 z"
       inkscape:export-filename="Favicon.png"
       inkscape:export-xdpi="96"
       inkscape:export-ydpi="96" />
    <path
       id="path1354"
       style="fill:#000000;fill-opacity:1;stroke:#b0b0b0;stroke-width:1;stroke-dasharray:none;stroke-opacity:1"
       d="m 101.6582,92.697266 c -7.813324,0.725172 -15.671058,2.987357 -22.546419,6.795612 -9.701989,5.271672 -17.792229,13.673252 -22.149226,23.869042 -1.677599,3.86862 -2.832773,8.17073 -3.327789,12.34316 -0.944886,7.74409 0.299569,15.85797 3.485219,23.03749 2.528679,5.7724 6.289782,11.00141 10.793794,15.33018 6.042292,5.79943 13.567642,10.08477 21.506143,12.5503 4.716436,1.4587 9.617439,2.32225 14.548828,2.55664 0,-2.6849 0,-5.36979 0,-8.05469 -10.066897,-0.67127 -19.788621,-5.30711 -26.660814,-12.6922 -7.245537,-7.69906 -11.266157,-18.32987 -10.868667,-28.89999 0.312944,-10.47333 4.925075,-20.73063 12.551652,-27.91543 6.719987,-6.41316 15.709385,-10.37694 24.977829,-11.00215 0,-2.68424 0,-5.368485 0,-8.05273 -0.77018,0.04492 -1.54036,0.08984 -2.31055,0.134766 z" />
  </g>
</svg>
