<?xml version="1.0" encoding="UTF-8" standalone="no"?>
<!-- Created with Inkscape (http://www.inkscape.org/) -->

<svg
   width="210mm"
   height="297mm"
   viewBox="0 0 210 297"
   version="1.1"
   id="svg5"
   inkscape:version="1.2.1 (9c6d41e410, 2022-07-14)"
   sodipodi:docname="OddAubaLogo.svg"
   xmlns:inkscape="http://www.inkscape.org/namespaces/inkscape"
   xmlns:sodipodi="http://sodipodi.sourceforge.net/DTD/sodipodi-0.dtd"
   xmlns="http://www.w3.org/2000/svg"
   xmlns:svg="http://www.w3.org/2000/svg">
  <sodipodi:namedview
     id="namedview7"
     pagecolor="#ffffff"
     bordercolor="#999999"
     borderopacity="1"
     inkscape:showpageshadow="0"
     inkscape:pageopacity="0"
     inkscape:pagecheckerboard="0"
     inkscape:deskcolor="#d1d1d1"
     inkscape:document-units="mm"
     showgrid="false"
     showguides="true"
     inkscape:zoom="0.74564394"
     inkscape:cx="322.54"
     inkscape:cy="571.31826"
     inkscape:window-width="1920"
     inkscape:window-height="1017"
     inkscape:window-x="-8"
     inkscape:window-y="627"
     inkscape:window-maximized="1"
     inkscape:current-layer="layer1" />
  <defs
     id="defs2" />
  <g
     inkscape:label="Layer 1"
     inkscape:groupmode="layer"
     id="layer1">
    <path
       id="path452-9"
       style="display:inline;fill:#000000;fill-opacity:1;stroke:#000000;stroke-width:0;stroke-dasharray:none;stroke-opacity:1"
       d="m 104.75309,108.26903 a 35.483871,35.483871 0 0 0 -35.484144,35.48414 35.483871,35.483871 0 0 0 35.484144,35.48362 35.483871,35.483871 0 0 0 35.48363,-35.48362 35.483871,35.483871 0 0 0 -35.48363,-35.48414 z m 0,13.12891 a 22.354839,22.354839 0 0 1 22.35472,22.35523 22.354839,22.354839 0 0 1 -22.35472,22.35471 22.354839,22.354839 0 0 1 -22.354713,-22.35471 22.354839,22.354839 0 0 1 22.354713,-22.35523 z"
       inkscape:export-filename="OddAuba.png"
       inkscape:export-xdpi="96"
       inkscape:export-ydpi="96" />
    <path
       id="path1173-3-6"
       style="fill:#000000;fill-opacity:1;stroke:#000000;stroke-width:0;stroke-dasharray:none;stroke-opacity:1"
       d="m 106.53205,183.0632 v 10.1508 a 54.559776,49.490322 0 0 0 52.78077,-49.46106 54.559776,49.490322 0 0 0 -52.78077,-49.461054 v 10.150794 a 39.35453,39.35453 0 0 1 37.57549,39.31026 39.35453,39.35453 0 0 1 -37.57549,39.31026 z" />
    <path
       id="path1354-4"
       style="fill:#000000;fill-opacity:1;stroke:#000000;stroke-width:0;stroke-dasharray:none;stroke-opacity:1"
       d="M 102.97361,94.322886 A 54.559776,49.490322 0 0 0 50.192846,143.75294 54.559776,49.490322 0 0 0 102.97361,193.183 v -10.15287 a 39.35453,39.35453 0 0 1 -37.57549,-39.27719 39.35453,39.35453 0 0 1 37.57549,-39.27719 z"
       inkscape:export-filename="OddAuba.png"
       inkscape:export-xdpi="96"
       inkscape:export-ydpi="96" />
    <path
       id="path452"
       style="display:inline;fill:#e3dedb;stroke-width:0;stroke-dasharray:none;opacity:1;stroke:#000000;stroke-opacity:1;fill-opacity:1"
       d="m 106.80666,105.38708 a 35.483871,35.483871 0 0 0 -35.484137,35.48414 35.483871,35.483871 0 0 0 35.484137,35.48362 35.483871,35.483871 0 0 0 35.48362,-35.48362 35.483871,35.483871 0 0 0 -35.48362,-35.48414 z m 0,13.12891 a 22.354839,22.354839 0 0 1 22.35471,22.35523 22.354839,22.354839 0 0 1 -22.35471,22.35471 22.354839,22.354839 0 0 1 -22.354706,-22.35471 22.354839,22.354839 0 0 1 22.354706,-22.35523 z"
       inkscape:export-filename="OddAuba.png"
       inkscape:export-xdpi="96"
       inkscape:export-ydpi="96" />
    <path
       id="path1173-3"
       style="fill:#e3dedb;stroke:#000000;stroke-width:0;stroke-opacity:1;stroke-dasharray:none;fill-opacity:1"
       d="M 108.58562 180.18125 L 108.58562 190.33205 A 54.559776 49.490322 0 0 0 161.36638 140.87099 A 54.559776 49.490322 0 0 0 108.58562 91.409924 L 108.58562 101.56073 A 39.35453 39.35453 0 0 1 146.1611 140.87099 A 39.35453 39.35453 0 0 1 108.58562 180.18125 z " />
    <path
       id="path1354"
       style="fill:#e3dedb;stroke:#000000;stroke-width:0;stroke-opacity:1;stroke-dasharray:none;fill-opacity:1"
       d="M 105.02718 91.44093 A 54.559776 49.490322 0 0 0 52.246423 140.87099 A 54.559776 49.490322 0 0 0 105.02718 190.30105 L 105.02718 180.14818 A 39.35453 39.35453 0 0 1 67.451697 140.87099 A 39.35453 39.35453 0 0 1 105.02718 101.5938 L 105.02718 91.44093 z " />
  </g>
</svg>
